<?xml version="1.0" standalone="no"?>
<!DOCTYPE svg PUBLIC "-//W3C//DTD SVG 20010904//EN"
 "http://www.w3.org/TR/2001/REC-SVG-20010904/DTD/svg10.dtd">
<svg version="1.0" xmlns="http://www.w3.org/2000/svg"
 width="1059.000000pt" height="1059.000000pt" viewBox="0 0 1059.000000 1059.000000"
 preserveAspectRatio="xMidYMid meet">
<metadata>
Created by potrace 1.14, written by Peter Selinger 2001-2017
</metadata>
<g transform="translate(0.000000,1059.000000) scale(0.100000,-0.100000)"
fill="#000000" stroke="none">
<path d="M10020 9336 c0 -39 -93 -181 -164 -250 -72 -70 -242 -175 -311 -191
-11 -2 -39 -12 -73 -26 -13 -5 -32 -9 -42 -9 -11 0 -20 -4 -20 -10 0 -5 -10
-8 -22 -6 -13 2 -30 0 -38 -4 -8 -5 -31 -11 -50 -14 -19 -3 -45 -8 -57 -10
-11 -3 -43 -7 -70 -11 -82 -11 -92 -13 -103 -20 -5 -3 -10 -1 -10 5 0 6 -5 8
-11 4 -12 -7 -76 -13 -199 -18 -47 -2 -89 -5 -95 -6 -5 -1 -12 -1 -15 0 -12 5
-60 5 -60 0 0 -3 -53 -4 -117 -2 -120 2 -129 2 -173 2 -14 0 -51 2 -83 3 -32
2 -60 0 -63 -5 -3 -5 -11 -5 -17 -1 -11 7 -142 13 -354 16 -61 1 -103 6 -103
12 0 7 -3 7 -8 0 -9 -12 -42 -16 -42 -5 0 4 -16 4 -35 0 -19 -4 -35 -5 -35 -1
0 9 -84 6 -99 -3 -6 -4 -11 -3 -11 1 0 10 -177 9 -187 -1 -3 -3 -12 -1 -20 5
-9 9 -13 8 -13 0 0 -8 -5 -9 -18 -2 -10 5 -24 6 -32 1 -8 -5 -21 -5 -31 0 -9
5 -19 7 -22 3 -4 -3 -33 -7 -66 -9 -54 -3 -95 -7 -186 -18 -16 -1 -50 -6 -75
-11 -45 -7 -59 -10 -115 -21 -16 -4 -36 -7 -42 -7 -7 0 -13 -4 -13 -8 0 -4 -8
-6 -17 -5 -9 2 -29 -4 -45 -12 -16 -7 -34 -15 -41 -16 -7 -1 -48 -19 -92 -41
-141 -70 -253 -202 -285 -337 -5 -24 -11 -149 -13 -278 l-2 -235 -135 4 c-74
2 -195 4 -267 5 -81 0 -133 5 -133 11 0 7 -3 7 -8 0 -4 -6 -69 -10 -157 -10
-88 0 -153 4 -157 10 -5 7 -8 7 -8 0 0 -6 -45 -11 -113 -11 -175 -2 -302 -10
-317 -19 -9 -6 -11 -4 -5 5 6 9 4 11 -5 5 -7 -4 -36 -9 -64 -11 -28 -2 -71 -6
-95 -9 -45 -7 -97 -13 -166 -20 -22 -2 -40 -5 -40 -5 0 -2 -26 -8 -95 -19 -36
-6 -76 -14 -90 -17 -14 -3 -50 -11 -80 -17 -30 -6 -57 -13 -60 -17 -3 -3 -14
-5 -25 -5 -11 0 -25 -3 -31 -7 -6 -5 -23 -9 -38 -10 -14 -1 -26 -5 -26 -9 0
-6 -24 -13 -84 -25 -10 -3 -33 -10 -50 -18 -53 -23 -95 -38 -102 -36 -4 1 -10
-2 -13 -7 -7 -10 -111 -55 -128 -56 -7 0 -13 -4 -13 -7 0 -4 -21 -18 -47 -30
-72 -33 -205 -111 -223 -130 -3 -3 -30 -22 -60 -43 -30 -20 -69 -50 -86 -65
l-31 -27 109 -330 c60 -181 110 -337 113 -345 7 -28 166 -515 175 -538 8 -17
13 -20 22 -12 87 73 170 135 191 143 9 3 17 11 17 17 0 6 5 8 10 5 6 -3 10 -2
10 3 0 5 8 12 18 15 9 3 50 24 89 46 40 23 79 41 87 41 8 0 16 4 18 8 4 10
198 82 221 82 9 0 18 4 22 10 3 5 12 7 20 3 8 -3 15 0 15 7 0 6 5 8 10 5 6 -3
16 -3 23 2 6 4 17 8 22 9 6 1 25 5 42 8 18 3 48 9 65 12 49 9 63 12 63 14 0 1
14 3 30 5 17 1 55 6 85 10 105 13 125 15 227 19 56 2 107 7 112 11 6 3 11 3
11 -2 0 -4 18 -8 40 -8 22 0 40 3 40 6 0 3 7 6 15 6 8 0 15 -3 15 -7 0 -4 7
-7 15 -7 8 0 15 5 15 10 0 5 6 4 14 -2 10 -8 16 -9 21 -1 3 6 10 8 15 5 5 -3
71 -8 147 -11 213 -8 232 -10 239 -17 4 -4 13 -2 21 4 7 6 13 7 13 2 0 -5 17
-9 38 -9 20 -1 71 -4 112 -8 41 -4 94 -8 117 -9 23 -2 45 -6 49 -10 4 -4 13
-2 21 4 7 6 13 8 13 3 0 -5 19 -10 43 -11 97 -5 143 -10 154 -16 6 -4 14 -3
18 3 4 6 12 7 18 3 7 -4 30 -9 52 -10 212 -13 277 -16 385 -16 69 0 161 4 205
8 44 4 92 8 108 8 15 1 27 4 27 7 0 4 10 6 23 7 32 1 125 28 179 53 26 11 50
20 53 20 3 0 12 5 20 12 34 30 45 38 45 32 0 -4 32 25 70 66 39 40 68 75 65
78 -3 3 2 13 10 22 18 20 63 139 71 188 3 20 8 40 10 43 9 15 18 171 18 336 1
101 4 184 9 184 4 1 10 2 15 3 4 1 13 5 20 9 6 5 12 5 12 0 0 -4 53 -9 118
-11 202 -4 261 -7 268 -14 4 -4 15 -3 26 3 14 7 23 7 33 -1 9 -8 15 -8 20 0 3
6 11 7 17 4 25 -16 695 -23 878 -10 58 5 125 10 150 11 25 2 45 4 45 5 0 1 14
4 30 6 105 15 96 13 185 33 25 6 55 12 67 15 12 3 31 10 42 16 12 6 21 8 21 4
0 -3 7 -1 15 6 8 7 15 9 15 5 0 -4 7 -1 17 6 9 8 17 12 17 10 1 -4 135 58 151
71 87 66 140 119 177 174 l45 67 0 758 c1 418 -1 759 -3 759 -2 0 -4 -7 -4
-14z"/>
<path d="M3069 7168 c-33 -105 -150 -473 -156 -488 -3 -8 -8 -21 -10 -27 -1
-7 -5 -19 -6 -25 -2 -7 -7 -20 -10 -28 -3 -8 -36 -109 -72 -225 -131 -414
-231 -728 -312 -980 -19 -60 -36 -114 -37 -120 -2 -5 -8 -23 -14 -38 -7 -16
-12 -31 -12 -34 0 -3 -18 -64 -41 -134 l-41 -129 -296 -1 c-1115 -2 -1489 -6
-1499 -12 -7 -5 -13 -5 -13 0 0 4 -62 7 -137 5 -149 -2 -182 -2 -228 2 -16 2
-38 -1 -49 -6 -13 -7 -16 -7 -11 1 5 8 -2 10 -22 5 -15 -4 -29 -8 -31 -9 -2
-2 -18 1 -37 5 -31 7 -33 6 -22 -11 7 -11 17 -19 24 -19 7 0 13 -4 13 -10 0
-5 6 -10 14 -10 8 0 16 -4 18 -8 1 -4 64 -52 138 -105 74 -54 149 -109 165
-122 17 -14 36 -25 43 -25 7 0 10 -4 7 -10 -3 -5 0 -10 7 -10 7 0 25 -10 40
-23 14 -12 36 -29 48 -37 61 -42 145 -106 148 -112 2 -5 10 -8 18 -8 8 0 14
-4 14 -10 0 -5 7 -10 15 -10 8 0 15 -3 15 -7 0 -5 17 -19 38 -33 20 -14 39
-27 42 -30 3 -3 21 -17 40 -30 19 -14 40 -28 45 -32 65 -52 228 -168 235 -168
5 0 10 -3 12 -8 2 -4 37 -32 78 -62 41 -30 76 -58 78 -62 2 -5 10 -8 18 -8 8
0 17 -7 20 -15 4 -8 12 -15 18 -15 7 0 27 -13 44 -28 17 -16 57 -46 89 -68 32
-21 67 -47 77 -56 11 -10 23 -18 26 -18 4 0 18 -9 31 -21 13 -12 44 -35 69
-52 25 -17 51 -37 58 -44 7 -7 26 -20 42 -30 17 -9 30 -21 30 -25 0 -4 6 -8
13 -8 13 -1 67 -45 67 -56 0 -3 -21 -72 -47 -153 -26 -80 -48 -148 -48 -151 0
-3 -8 -27 -17 -55 -34 -102 -108 -335 -158 -495 -29 -91 -70 -221 -92 -290
-22 -69 -49 -154 -60 -190 -11 -36 -31 -96 -43 -135 -13 -38 -46 -144 -75
-235 -92 -292 -131 -413 -156 -489 -13 -41 -22 -77 -19 -79 4 -4 45 25 88 63
9 8 19 15 22 15 7 0 129 94 133 103 2 4 8 5 13 1 5 -3 9 -1 9 4 0 5 24 26 53
46 28 20 72 51 97 70 25 19 63 47 85 63 22 15 42 31 45 34 3 4 21 17 40 30 19
14 82 60 140 103 58 43 116 86 130 96 14 10 99 74 190 142 91 68 178 131 194
141 15 10 36 26 46 35 10 9 44 35 75 57 32 22 63 45 69 50 6 6 36 28 66 50 30
22 60 43 65 47 29 23 174 130 241 178 41 30 84 63 94 72 10 9 20 13 22 9 2 -4
95 -75 208 -156 113 -82 207 -153 208 -157 2 -4 8 -8 13 -8 5 0 31 -17 58 -37
27 -21 61 -47 76 -58 16 -11 34 -25 40 -32 7 -7 15 -10 17 -8 3 3 15 -6 28
-20 13 -14 29 -25 36 -25 7 0 14 -4 16 -8 2 -4 73 -58 158 -120 85 -61 164
-119 175 -128 11 -8 45 -33 75 -55 30 -22 63 -47 73 -55 9 -7 20 -14 23 -14 3
0 11 -6 18 -12 8 -7 24 -20 36 -28 12 -8 53 -39 91 -67 38 -29 73 -53 79 -53
5 0 10 -4 10 -10 0 -5 6 -10 13 -10 7 0 18 -9 25 -20 7 -11 19 -20 26 -20 8 0
16 -4 18 -8 2 -4 32 -28 68 -52 36 -25 72 -53 81 -62 9 -10 21 -18 27 -18 6 0
15 -6 19 -14 4 -8 11 -15 16 -15 6 0 73 -47 87 -61 3 -3 12 -9 21 -15 10 -5
32 -21 50 -34 20 -15 31 -19 27 -10 -7 19 -115 349 -298 909 -83 256 -185 566
-225 690 -179 543 -215 655 -215 663 0 11 17 27 60 57 19 13 37 27 40 30 3 3
34 26 70 51 36 24 67 47 70 50 5 7 90 71 130 99 25 17 127 94 153 115 9 8 17
12 17 8 0 -4 8 2 19 13 29 30 60 54 70 54 5 0 12 7 15 16 3 8 10 13 15 10 5
-4 11 -3 13 2 1 4 39 34 83 67 44 33 85 63 90 67 93 71 116 88 124 88 5 0 11
7 15 15 3 8 10 15 16 15 6 0 17 6 24 13 8 6 23 19 36 27 12 8 32 24 45 35 13
11 49 38 80 60 32 22 69 50 84 62 14 13 32 23 39 23 6 0 12 3 12 8 0 4 52 46
116 92 64 47 128 95 143 107 14 13 29 23 32 23 3 0 17 9 30 21 13 12 44 35 69
52 25 17 47 33 50 36 11 13 89 71 95 71 7 0 35 26 35 33 0 2 -263 4 -585 3
-325 0 -585 -5 -585 -10 0 -5 -6 -4 -12 1 -15 11 -148 10 -166 -1 -6 -4 -12
-4 -12 1 0 10 -274 8 -289 -1 -6 -4 -11 -3 -11 3 0 6 -11 6 -30 1 -18 -5 -32
-5 -36 1 -4 6 -10 6 -18 0 -9 -7 -16 -7 -24 1 -9 9 -12 9 -12 -2 0 -11 -3 -11
-12 -2 -8 8 -15 8 -24 1 -8 -6 -14 -6 -18 0 -4 6 -18 6 -35 1 -16 -4 -32 -6
-35 -3 -9 10 -50 10 -63 0 -7 -5 -18 -5 -25 -1 -16 10 -50 10 -66 0 -7 -4 -12
-2 -12 4 0 7 -6 8 -19 0 -13 -7 -22 -7 -26 0 -4 7 -13 7 -26 0 -12 -7 -19 -7
-19 -1 0 6 -9 7 -22 3 -31 -10 -157 -7 -168 4 -4 5 -61 171 -125 369 -64 198
-130 398 -145 445 -16 47 -92 281 -170 520 -78 239 -179 547 -224 683 l-81
248 -16 -53z"/>
<path d="M10568 6920 c-20 -52 -79 -144 -124 -192 -38 -42 -126 -117 -139
-119 -5 -1 -15 -9 -22 -18 -7 -9 -13 -11 -13 -6 0 6 -3 6 -8 -1 -10 -15 -212
-109 -212 -99 0 2 -16 -3 -35 -11 -19 -8 -38 -14 -42 -13 -5 1 -11 0 -15 -1
-9 -3 -10 -3 -53 -13 -126 -30 -262 -49 -367 -51 -27 -1 -48 -4 -48 -7 0 -10
-740 -7 -746 3 -3 4 -10 5 -16 2 -14 -9 -92 -9 -106 0 -6 3 -13 2 -17 -4 -4
-7 -12 -7 -26 0 -14 8 -19 7 -19 -2 0 -9 -3 -9 -8 -2 -8 12 -586 14 -598 2 -4
-4 -13 -3 -21 3 -7 6 -13 8 -13 3 0 -5 -17 -9 -38 -10 -45 -1 -210 -19 -257
-29 -91 -18 -190 -46 -202 -57 -7 -6 -13 -8 -13 -5 0 6 -112 -43 -120 -52 -3
-4 -17 -12 -32 -18 -16 -7 -28 -17 -28 -23 0 -5 -5 -10 -11 -10 -15 0 -95 -84
-126 -133 -15 -23 -38 -76 -52 -118 -25 -71 -26 -87 -26 -283 l0 -207 -22 4
c-12 2 -27 0 -34 -4 -7 -4 -17 -5 -23 -2 -9 6 -147 11 -383 16 -51 1 -93 6
-93 11 0 5 -6 3 -14 -3 -10 -9 -16 -9 -21 -1 -5 8 -11 8 -21 -1 -8 -6 -14 -8
-14 -3 0 9 -147 14 -455 17 -93 1 -163 6 -167 12 -5 7 -8 7 -8 0 0 -5 -20 -10
-45 -11 -25 0 -45 4 -45 9 0 6 -5 6 -12 0 -7 -5 -35 -8 -63 -6 -27 2 -54 3
-60 3 -205 -9 -322 -17 -333 -24 -6 -3 -13 -2 -17 4 -4 6 -12 7 -18 3 -7 -4
-25 -8 -42 -9 -25 -1 -74 -6 -180 -19 -11 -1 -22 -4 -25 -5 -3 -1 -17 -2 -32
-2 -16 -1 -28 -3 -28 -7 0 -3 -15 -7 -33 -7 -29 -1 -78 -10 -84 -15 -2 -1 -11
-2 -20 -3 -10 -1 -24 -5 -30 -9 -7 -5 -13 -6 -13 -4 0 3 -33 -4 -72 -14 -40
-11 -77 -21 -83 -22 -5 -2 -16 -6 -23 -10 -6 -5 -12 -6 -12 -3 0 3 -20 -3 -45
-14 -25 -11 -45 -17 -45 -13 0 3 -6 0 -13 -6 -8 -6 -17 -8 -20 -4 -4 3 -7 1
-7 -5 0 -7 -3 -11 -7 -10 -17 3 -184 -77 -194 -94 -3 -5 -8 -8 -10 -6 -5 4
-99 -55 -99 -63 0 -4 664 -3 805 1 6 0 30 0 55 0 25 0 52 0 60 0 8 0 35 0 60
0 25 0 52 0 60 0 8 1 34 -1 57 -3 23 -2 47 -1 54 4 7 4 23 3 36 -2 15 -6 23
-5 23 2 0 8 4 8 13 1 7 -6 18 -7 27 -2 7 4 24 4 37 -1 13 -5 23 -5 23 0 0 5
15 5 34 1 19 -4 39 -4 46 0 7 4 27 4 46 0 21 -5 34 -4 34 2 0 6 7 4 17 -3 9
-8 17 -14 17 -13 16 13 46 22 46 14 0 -7 6 -8 17 -1 10 5 26 5 40 0 15 -5 23
-5 23 2 0 6 5 7 11 4 5 -4 34 -6 62 -6 207 6 417 5 417 -2 0 -5 6 -5 13 0 18
11 127 10 127 -2 0 -7 3 -7 8 0 10 14 387 13 399 0 4 -5 4 -7 0 -3 -5 3 -17
-1 -27 -10 -18 -17 -41 -35 -80 -62 -12 -8 -36 -27 -54 -42 -17 -15 -36 -28
-43 -28 -6 0 -13 -3 -15 -7 -1 -5 -25 -25 -53 -45 -27 -21 -54 -41 -60 -46 -5
-4 -26 -19 -45 -32 -19 -13 -44 -32 -54 -42 -11 -10 -26 -18 -33 -18 -8 0 -12
-4 -8 -9 3 -5 -3 -12 -14 -16 -10 -3 -29 -15 -42 -26 -13 -12 -66 -51 -116
-87 -51 -36 -93 -70 -93 -74 0 -4 -7 -8 -15 -8 -8 0 -15 -4 -15 -10 0 -5 -7
-10 -15 -10 -8 0 -15 -4 -15 -8 0 -4 -18 -19 -40 -32 -22 -14 -40 -28 -40 -32
0 -5 -7 -8 -16 -8 -8 0 -12 -4 -9 -10 3 -5 1 -10 -5 -10 -7 0 -34 -17 -60 -37
-27 -21 -92 -69 -144 -108 -53 -38 -96 -73 -96 -77 0 -4 -6 -8 -13 -8 -8 0
-22 -9 -32 -20 -10 -11 -22 -20 -27 -20 -4 0 -18 -9 -30 -20 -45 -40 -58 -50
-63 -50 -3 0 -27 -17 -54 -37 -26 -21 -58 -45 -71 -53 -12 -8 -28 -20 -34 -25
-6 -6 -36 -28 -66 -50 -30 -22 -57 -42 -60 -45 -3 -3 -18 -14 -33 -23 -16 -10
-36 -25 -45 -34 -9 -8 -32 -25 -51 -39 l-34 -23 31 4 c17 2 35 6 40 9 5 3 24
8 43 11 47 9 64 13 64 15 0 1 11 3 25 5 14 2 37 6 52 9 54 12 182 29 226 30
17 0 32 3 32 6 0 4 17 7 38 7 20 1 78 4 127 8 50 3 141 7 202 9 62 1 115 5
118 7 2 3 29 2 60 -1 31 -3 58 -4 61 -1 3 3 103 4 222 2 119 -2 307 -4 417 -6
110 -1 202 -4 205 -5 3 -1 10 -1 15 0 6 1 102 4 215 5 113 2 205 4 205 5 0 2
127 9 217 13 32 1 58 6 58 11 0 4 6 6 14 3 7 -3 31 -2 52 3 22 4 57 11 79 14
67 9 208 46 222 58 7 6 13 8 13 4 0 -4 13 0 30 9 16 8 33 16 37 16 13 0 98 44
101 52 2 4 9 7 15 7 23 1 116 84 162 145 50 66 88 150 100 225 3 19 7 46 10
60 14 83 23 233 24 420 l1 115 150 0 c82 0 150 -3 150 -7 0 -4 11 -3 24 2 13
5 27 6 30 3 9 -9 56 -10 56 -2 0 4 15 3 32 -2 22 -6 34 -6 36 1 2 6 9 7 15 3
17 -10 497 -10 497 1 0 5 6 3 13 -3 8 -6 17 -8 20 -5 3 4 46 8 94 10 114 5
158 10 174 19 8 6 10 4 4 -5 -6 -9 -4 -11 4 -5 7 4 29 9 49 10 20 2 37 4 37 5
0 1 14 3 30 5 17 3 53 9 80 15 28 6 64 13 80 16 94 18 318 109 361 147 32 29
44 37 44 32 0 -11 111 108 143 154 l32 46 3 525 c1 289 1 620 0 735 l-3 210
-17 -45z"/>
<path d="M10002 4198 c-17 -48 -84 -146 -139 -204 -48 -52 -168 -137 -233
-166 -56 -26 -114 -49 -130 -54 -8 -2 -49 -13 -90 -24 -78 -21 -133 -33 -162
-34 -10 0 -18 -3 -18 -6 0 -3 -15 -5 -32 -5 -18 1 -37 0 -42 -3 -5 -3 -26 -6
-46 -7 -21 -1 -43 -5 -49 -9 -6 -4 -11 -2 -11 4 0 7 -6 8 -17 2 -10 -5 -42 -8
-70 -8 -29 1 -53 -1 -53 -5 0 -10 -44 -5 -52 6 -5 7 -8 7 -8 0 0 -12 -419 -13
-437 -2 -6 4 -15 3 -18 -3 -5 -8 -12 -7 -23 2 -12 10 -16 10 -19 0 -3 -6 -9
-9 -14 -6 -5 3 -56 7 -113 8 -57 2 -108 6 -114 10 -6 3 -13 2 -17 -4 -4 -6
-12 -7 -18 -3 -14 9 -687 13 -702 4 -5 -3 -28 -6 -50 -8 -22 -1 -58 -4 -80 -7
-36 -4 -57 -7 -135 -21 -14 -3 -48 -11 -77 -19 -28 -8 -54 -11 -57 -8 -3 3 -6
0 -6 -6 0 -7 -7 -12 -16 -12 -20 0 -147 -59 -155 -72 -3 -6 -9 -9 -13 -8 -9 2
-83 -57 -105 -83 -9 -10 -26 -31 -38 -45 -24 -28 -69 -116 -85 -167 -6 -16
-12 -140 -14 -275 -2 -135 -6 -250 -8 -256 -4 -11 -66 -12 -84 0 -7 4 -12 2
-12 -4 0 -6 -5 -8 -12 -4 -6 4 -46 9 -87 10 -42 2 -93 5 -114 7 -21 2 -40 0
-43 -5 -3 -4 -11 -5 -17 -1 -17 11 -102 14 -382 13 -295 -1 -375 -3 -375 -10
0 -3 -24 -5 -53 -4 -28 0 -56 -2 -62 -5 -5 -3 -19 -6 -30 -7 -55 -3 -132 -16
-145 -24 -9 -5 -19 -5 -27 2 -8 6 -13 6 -13 1 0 -5 -6 -10 -12 -11 -7 0 -23
-3 -35 -6 -13 -3 -33 -9 -45 -12 -13 -3 -32 -7 -43 -9 -11 -2 -32 -8 -46 -13
-15 -6 -30 -8 -33 -5 -3 4 -6 1 -6 -6 0 -7 -3 -10 -8 -7 -4 2 -22 -2 -39 -9
l-32 -14 34 -103 c19 -57 43 -130 54 -163 331 -1014 321 -984 344 -978 12 3
32 5 45 6 12 1 22 3 22 7 0 3 12 6 28 6 75 4 162 13 171 18 5 4 12 2 16 -3 4
-7 15 -7 30 -1 17 7 25 6 25 -1 0 -8 4 -8 13 0 8 6 17 8 20 4 10 -10 57 -10
57 0 0 4 4 6 9 3 5 -3 52 -8 106 -11 53 -3 101 -7 106 -11 5 -3 9 0 9 6 0 6 5
8 12 4 6 -4 26 -8 44 -9 18 -2 38 -6 45 -10 8 -6 10 -4 4 5 -6 10 -4 11 6 4 8
-5 25 -10 39 -11 69 -5 141 -12 200 -19 36 -4 80 -8 98 -8 17 0 32 -3 32 -6 0
-3 19 -6 43 -7 23 -1 58 -3 76 -3 19 -1 45 -6 57 -10 13 -5 26 -4 33 3 8 8 11
8 11 0 0 -6 15 -10 35 -9 19 1 35 -1 35 -4 0 -3 30 -5 66 -5 36 0 67 -2 69 -5
2 -3 104 -5 227 -3 248 3 308 5 308 13 0 3 15 7 33 8 30 1 72 8 72 12 0 2 36
10 58 12 9 1 17 6 17 11 0 5 7 7 15 3 8 -3 15 -2 15 3 0 4 6 8 13 8 11 0 40
13 126 58 57 30 166 145 199 210 39 78 69 169 77 237 4 29 8 55 10 58 7 11 18
216 19 330 l0 115 51 -2 c27 -2 55 -5 62 -8 7 -2 15 0 19 6 3 6 11 6 17 2 7
-5 58 -9 114 -8 57 0 103 -4 103 -8 0 -4 9 -3 19 3 14 7 22 7 26 0 5 -8 11 -7
21 1 8 6 14 7 14 2 0 -5 137 -9 320 -9 176 0 320 2 320 5 0 3 28 6 63 7 82 2
233 20 317 39 14 3 36 8 49 11 38 8 193 63 231 82 101 50 211 140 266 218 55
76 52 31 51 817 0 400 -3 727 -6 727 -4 0 -12 -15 -19 -32z"/>
</g>
</svg>
